<?xml version="1.0" encoding="utf-8"?>
<!-- Generator: Adobe Illustrator 25.0.0, SVG Export Plug-In . SVG Version: 6.00 Build 0)  -->
<svg version="1.1" id="Layer_1" xmlns="http://www.w3.org/2000/svg" xmlns:xlink="http://www.w3.org/1999/xlink" x="0px" y="0px"
	 viewBox="0 0 50 50" style="enable-background:new 0 0 50 50;" xml:space="preserve">
<style type="text/css">
	.st0{fill:#1D9BEF;}
</style>
<g>
	<g>
		<path class="st0" d="M1.59,39.97c5.33,0.53,9.91-0.91,14.22-4.05c-4.48-0.45-7.47-2.63-8.99-6.54c1.33-0.09,2.64-0.18,3.95-0.27
			c0.02-0.08,0.03-0.16,0.05-0.23c-4.69-1.48-7.21-4.62-7.55-9.53c1.42,0.42,2.75,0.82,4.08,1.22c0.06-0.1,0.11-0.2,0.17-0.31
			c-2-1.52-3.36-3.45-3.89-5.91C3.1,11.92,3.46,9.63,4.69,7.34c5.32,6.2,11.91,9.61,20.08,10.24c-0.05-0.69-0.09-1.22-0.12-1.76
			c-0.19-4.07,1.97-7.76,5.64-9.38c1.14-0.51,2.38-0.69,3.7-0.79c1.81-0.13,3.38,0.22,4.92,0.99c0.71,0.36,1.4,0.84,1.97,1.39
			c0.5,0.49,0.97,0.57,1.56,0.36c1.66-0.6,3.33-1.2,5.07-1.83c-0.61,2.15-2.09,3.67-3.88,4.97c0.04,0.08,0.08,0.15,0.12,0.23
			c1.59-0.45,3.19-0.9,5-1.41c-0.23,0.37-0.35,0.65-0.55,0.85c-1.1,1.14-2.17,2.31-3.34,3.37c-0.51,0.46-0.7,0.86-0.72,1.54
			c-0.22,10.42-4.4,18.87-13.39,24.25c-9.43,5.63-19.2,5.26-28.77-0.1C1.9,40.24,1.83,40.17,1.59,39.97z"/>
	</g>
</g>
</svg>
